<svg width="45" height="46" viewBox="0 0 45 46" fill="none" xmlns="http://www.w3.org/2000/svg">
<circle cx="22.5" cy="22.5479" r="22.5" fill="white"/>
<path d="M15.0172 33.8464H31.4818C31.6542 33.8451 31.8212 33.7875 31.9563 33.683C32.0914 33.5784 32.1869 33.4328 32.2276 33.2692L34.9717 22.556C35.0045 22.4387 35.0088 22.3155 34.9844 22.1962C34.96 22.0769 34.9075 21.9648 34.831 21.8688C34.7575 21.777 34.6635 21.7027 34.5562 21.6515C34.449 21.6003 34.3312 21.5736 34.2118 21.5733H33.6349L30.8908 32.2865H15.6364L12.1183 18.5841C12.0747 18.4176 11.9757 18.2699 11.8369 18.1642C11.6981 18.0585 11.5274 18.0007 11.3514 18H7.71367C7.51842 18.0181 7.33709 18.1066 7.20511 18.2483C7.07313 18.39 7 18.5747 7 18.7662C7 18.9578 7.07313 19.1424 7.20511 19.2841C7.33709 19.4258 7.51842 19.5143 7.71367 19.5324H10.7533L14.0673 32.4927C13.7309 32.6047 13.4253 32.7904 13.1737 33.0355C12.9302 33.2711 12.7371 33.5516 12.6054 33.8606C12.4738 34.1697 12.4062 34.5012 12.4068 34.8359C12.4086 35.1652 12.4773 35.4909 12.6089 35.7941C12.7406 36.0972 12.9326 36.3719 13.1737 36.602C12.9251 36.8424 12.729 37.1296 12.5972 37.4461C12.4653 37.7627 12.4006 38.102 12.4068 38.4437C12.4069 38.9492 12.5605 39.4433 12.8481 39.8636C13.1357 40.2838 13.5445 40.6114 14.0227 40.8048C14.5009 40.9982 15.027 41.0489 15.5347 40.9503C16.0424 40.8517 16.5087 40.6083 16.8747 40.2509C17.1184 40.0144 17.3112 39.7327 17.4417 39.4223C17.5722 39.1119 17.6378 38.7792 17.6346 38.4437C17.6303 38.0903 17.5437 37.7425 17.3813 37.4266H29.2865C29.121 37.7413 29.0342 38.0899 29.0332 38.4437C29.0332 39.1216 29.309 39.7718 29.7998 40.2512C30.2907 40.7306 30.9565 41 31.6507 41C31.9936 41.0016 32.3334 40.9362 32.65 40.8076C32.9666 40.6789 33.2536 40.4897 33.4941 40.2509C33.7381 40.0143 33.9316 39.7327 34.0632 39.4224C34.1949 39.1122 34.2621 38.7795 34.2611 38.4437C34.2574 37.7674 33.9802 37.12 33.4899 36.6425C32.9997 36.165 32.336 35.896 31.6436 35.8942H15.0172C14.8804 35.8933 14.7452 35.8661 14.6192 35.8142C14.4932 35.7622 14.3789 35.6866 14.2829 35.5915C14.1869 35.4964 14.1109 35.3838 14.0594 35.26C14.008 35.1363 13.982 35.0039 13.9829 34.8703C13.9847 34.6023 14.094 34.3457 14.2874 34.1555C14.4808 33.9654 14.7428 33.8569 15.0172 33.8533V33.8464ZM30.6023 38.4437C30.6087 38.1851 30.717 37.9389 30.9048 37.7565C31.1026 37.5631 31.3708 37.4544 31.6507 37.4541C31.9208 37.4558 32.1797 37.56 32.3727 37.7446C32.5657 37.9292 32.6777 38.1799 32.685 38.4437C32.6801 38.7026 32.5714 38.9493 32.3824 39.1308C32.2389 39.2721 32.0561 39.3691 31.8567 39.4099C31.6572 39.4507 31.4499 39.4335 31.2604 39.3603C31.0709 39.2872 30.9075 39.1613 30.7906 38.9984C30.6736 38.8355 30.6081 38.6426 30.6023 38.4437ZM13.9829 38.4437C13.9893 38.1851 14.0977 37.9389 14.2854 37.7565C14.4299 37.6219 14.6109 37.5307 14.8069 37.4937C15.0029 37.4567 15.2057 37.4756 15.3911 37.548C15.5764 37.6204 15.7366 37.7433 15.8524 37.9021C15.9683 38.0609 16.0349 38.2489 16.0445 38.4437C16.0381 38.7022 15.9297 38.9484 15.7419 39.1308C15.5433 39.3229 15.2756 39.4315 14.9961 39.4332C14.7296 39.4262 14.476 39.3198 14.2875 39.1357C14.099 38.9516 13.99 38.7039 13.9829 38.4437Z" fill="#F8002E"/>
</svg>
