<svg width="28" height="24" viewBox="0 0 28 24" fill="none" xmlns="http://www.w3.org/2000/svg">
<path d="M8.01719 16.7986H24.4818C24.6542 16.7972 24.8212 16.7397 24.9563 16.6351C25.0914 16.5305 25.1869 16.3849 25.2276 16.2213L27.9717 5.50816C28.0045 5.39081 28.0088 5.26762 27.9844 5.14835C27.96 5.02907 27.9075 4.91699 27.831 4.82098C27.7575 4.72914 27.6635 4.65482 27.5562 4.60363C27.449 4.55244 27.3312 4.52572 27.2118 4.52549H26.6349L23.8908 15.2387H8.63638L5.1183 1.53625C5.07469 1.36972 4.97573 1.22202 4.83694 1.11632C4.69815 1.01061 4.52736 0.952873 4.35136 0.952148H0.713668C0.518417 0.970228 0.337085 1.05876 0.20511 1.20046C0.073134 1.34215 0 1.52681 0 1.71836C0 1.9099 0.073134 2.09457 0.20511 2.23626C0.337085 2.37795 0.518417 2.46648 0.713668 2.48456H3.75329L7.06731 15.4448C6.73094 15.5568 6.42527 15.7425 6.17372 15.9877C5.93024 16.2233 5.73707 16.5037 5.60542 16.8128C5.47376 17.1218 5.40625 17.4534 5.40678 17.7881C5.40857 18.1174 5.47728 18.4431 5.60893 18.7462C5.74059 19.0494 5.93256 19.324 6.17372 19.5542C5.92512 19.7946 5.72898 20.0818 5.59717 20.3983C5.46535 20.7148 5.40058 21.0541 5.40678 21.3958C5.4069 21.9013 5.56048 22.3954 5.8481 22.8157C6.13571 23.236 6.54446 23.5635 7.02266 23.757C7.50086 23.9504 8.02705 24.001 8.5347 23.9024C9.04235 23.8038 9.50868 23.5605 9.87474 23.2031C10.1184 22.9666 10.3112 22.6848 10.4417 22.3745C10.5722 22.0641 10.6378 21.7313 10.6346 21.3958C10.6303 21.0424 10.5437 20.6946 10.3813 20.3788H22.2865C22.121 20.6935 22.0342 21.042 22.0332 21.3958C22.0332 22.0738 22.309 22.724 22.7998 23.2034C23.2907 23.6828 23.9565 23.9521 24.6507 23.9521C24.9936 23.9538 25.3334 23.8884 25.65 23.7597C25.9666 23.6311 26.2536 23.4418 26.4941 23.2031C26.7381 22.9665 26.9316 22.6848 27.0632 22.3746C27.1949 22.0643 27.2621 21.7316 27.2611 21.3958C27.2574 20.7196 26.9802 20.0722 26.4899 19.5946C25.9997 19.1171 25.336 18.8482 24.6436 18.8464H8.01719C7.88044 18.8455 7.74521 18.8183 7.61922 18.7663C7.49323 18.7144 7.37895 18.6387 7.2829 18.5436C7.18686 18.4485 7.11093 18.3359 7.05945 18.2122C7.00797 18.0884 6.98195 17.956 6.98288 17.8225C6.9847 17.5545 7.09403 17.2978 7.28741 17.1077C7.48079 16.9175 7.74281 16.809 8.01719 16.8054V16.7986ZM23.6023 21.3958C23.6087 21.1372 23.717 20.891 23.9048 20.7086C24.1026 20.5153 24.3708 20.4065 24.6507 20.4063C24.9208 20.4079 25.1797 20.5121 25.3727 20.6967C25.5657 20.8814 25.6777 21.132 25.685 21.3958C25.6801 21.6547 25.5714 21.9014 25.3824 22.083C25.2389 22.2243 25.0561 22.3213 24.8567 22.3621C24.6572 22.4029 24.4499 22.3856 24.2604 22.3125C24.0709 22.2393 23.9075 22.1135 23.7906 21.9505C23.6736 21.7876 23.6081 21.5947 23.6023 21.3958V21.3958ZM6.98288 21.3958C6.98926 21.1372 7.09765 20.891 7.28543 20.7086C7.42987 20.574 7.61088 20.4828 7.80691 20.4458C8.00293 20.4089 8.2057 20.4277 8.39106 20.5001C8.57642 20.5726 8.73657 20.6955 8.85241 20.8543C8.96826 21.0131 9.03493 21.201 9.04447 21.3958C9.03809 21.6544 8.9297 21.9006 8.74192 22.083C8.54332 22.2751 8.2756 22.3836 7.99609 22.3853C7.72961 22.3784 7.47601 22.2719 7.28751 22.0878C7.09902 21.9037 6.98999 21.6561 6.98288 21.3958Z" fill="#F8002E"/>
</svg>
