<svg width="12" height="17" viewBox="0 0 12 17" fill="none" xmlns="http://www.w3.org/2000/svg">
<path d="M6.00366 0C2.70091 0 0 2.75771 0 6.19303C0.0013178 7.32455 0.301629 8.43244 0.866054 9.38804L5.44953 16.692C5.51144 16.7871 5.5938 16.8648 5.68963 16.9184C5.78546 16.972 5.89193 17 5.99999 17C6.10806 17 6.21452 16.972 6.31035 16.9184C6.40618 16.8648 6.48855 16.7871 6.55045 16.692L11.1413 9.38016C11.7034 8.4268 12.0013 7.32137 12 6.19303C12.0073 2.77347 9.30641 0 6.00366 0ZM6.00366 8.80498C5.67341 8.81335 5.34486 8.75165 5.03686 8.62342C4.72886 8.49519 4.44747 8.30296 4.20882 8.05774C3.97017 7.81252 3.77895 7.51913 3.64614 7.19442C3.51333 6.8697 3.44153 6.52003 3.43486 6.16546C3.44152 5.81106 3.51335 5.46158 3.6462 5.13707C3.77906 4.81257 3.97034 4.51944 4.20904 4.27454C4.44774 4.02963 4.72916 3.83777 5.03714 3.70998C5.34512 3.58218 5.67358 3.52098 6.00366 3.52987C6.33374 3.52098 6.66221 3.58218 6.97018 3.70998C7.27816 3.83777 7.55959 4.02963 7.79829 4.27454C8.03699 4.51944 8.22826 4.81257 8.36112 5.13707C8.49398 5.46158 8.5658 5.81106 8.57247 6.16546C8.5658 6.52003 8.494 6.8697 8.36119 7.19442C8.22837 7.51913 8.03716 7.81252 7.79851 8.05774C7.55986 8.30296 7.27847 8.49519 6.97047 8.62342C6.66247 8.75165 6.33392 8.81335 6.00366 8.80498Z" fill="white"/>
</svg>
