<svg width="22" height="23" viewBox="0 0 22 23" fill="none" xmlns="http://www.w3.org/2000/svg">
<path d="M21.8657 20.6174L15.4749 14.2265C16.687 12.7301 17.4167 10.8276 17.4167 8.75622C17.4167 3.95445 13.5101 0.0478516 8.70833 0.0478516C3.90656 0.0478516 0 3.95445 0 8.75622C0 13.558 3.9066 17.4646 8.70837 17.4646C10.7797 17.4646 12.6822 16.7349 14.1787 15.5228L20.5695 21.9136C20.7486 22.0926 21.0387 22.0926 21.2178 21.9136L21.8658 21.2656C22.0447 21.0866 22.0447 20.7964 21.8657 20.6174ZM8.70837 15.6312C4.91727 15.6312 1.83335 12.5473 1.83335 8.75622C1.83335 4.96512 4.91727 1.8812 8.70837 1.8812C12.4995 1.8812 15.5834 4.96512 15.5834 8.75622C15.5834 12.5473 12.4995 15.6312 8.70837 15.6312Z" fill="#134197"/>
</svg>
