<svg width="15" height="16" viewBox="0 0 15 16" fill="none" xmlns="http://www.w3.org/2000/svg">
<g clip-path="url(#clip0)">
<path d="M6.25116 0.953308H8.7581V1.37514H9.66344V0.894257C9.66356 0.427567 9.28407 0.0478516 8.81761 0.0478516H6.19165C5.72519 0.0478516 5.3457 0.427567 5.3457 0.894257V1.37514H6.25116V0.953308Z" fill="black" fill-opacity="0.54"/>
<path d="M11.7543 4.96216H3.25498C3.02209 4.96216 2.83876 5.16083 2.85752 5.39303L3.56809 14.1793C3.60768 14.6698 4.01681 15.0476 4.50833 15.0476H10.5008C10.9923 15.0476 11.4015 14.6698 11.4411 14.1792L12.1516 5.39303C12.1705 5.16083 11.9872 4.96216 11.7543 4.96216ZM5.31297 14.1105C5.30347 14.111 5.29397 14.1114 5.28459 14.1114C5.04724 14.1114 4.84799 13.9265 4.83323 13.6864L4.38794 6.47335C4.37261 6.22375 4.56246 6.00895 4.81195 5.99361C5.06063 5.97851 5.27635 6.16791 5.29168 6.41762L5.73686 13.6307C5.75231 13.8803 5.56245 14.095 5.31297 14.1105ZM7.96239 13.6586C7.96239 13.9086 7.75972 14.1113 7.50966 14.1113C7.25961 14.1113 7.05693 13.9086 7.05693 13.6586V6.44543C7.05693 6.19537 7.25961 5.9927 7.50966 5.9927C7.7596 5.9927 7.96239 6.19537 7.96239 6.44543V13.6586ZM10.6213 6.47209L10.1962 13.6852C10.1821 13.9257 9.9825 14.1113 9.74469 14.1113C9.73577 14.1113 9.72673 14.111 9.71768 14.1106C9.46809 14.0958 9.27766 13.8816 9.29242 13.632L9.71746 6.41876C9.7321 6.16917 9.94565 5.97874 10.1959 5.9935C10.4455 6.00815 10.636 6.2225 10.6213 6.47209Z" fill="black" fill-opacity="0.54"/>
<path d="M13.3198 3.56523L13.0224 2.67397C12.9441 2.43902 12.7241 2.28052 12.4763 2.28052H2.53268C2.28503 2.28052 2.06496 2.43902 1.98668 2.67397L1.68936 3.56523C1.63203 3.73712 1.70664 3.91245 1.84592 3.99988C1.90268 4.03547 1.96986 4.05687 2.04367 4.05687H12.9655C13.0393 4.05687 13.1066 4.03547 13.1632 3.99976C13.3025 3.91233 13.3771 3.73701 13.3198 3.56523Z" fill="black" fill-opacity="0.54"/>
</g>
<defs>
<clipPath id="clip0">
<rect width="15" height="15" fill="white" transform="translate(0 0.0478516)"/>
</clipPath>
</defs>
</svg>
